<svg xmlns="http://www.w3.org/2000/svg" width="24" height="24" viewBox="0 0 24 24">
  <g fill="#006c9c">
    <rect x="10" y="1.5" width="4" height="5" rx="1" />
    <rect x="10" y="17.5" width="4" height="5" rx="1" />
    <rect x="1.5" y="10" width="5" height="4" rx="1" />
    <rect x="17.5" y="10" width="5" height="4" rx="1" />
    <rect x="3.9" y="3.9" width="4.2" height="4.2" rx="1" transform="rotate(-45 6 6)" />
    <rect x="15.9" y="3.9" width="4.2" height="4.2" rx="1" transform="rotate(45 18 6)" />
    <rect x="3.9" y="15.9" width="4.2" height="4.2" rx="1" transform="rotate(45 6 18)" />
    <rect x="15.9" y="15.9" width="4.2" height="4.2" rx="1" transform="rotate(-45 18 18)" />
  </g>
  <circle cx="12" cy="12" r="7.25" fill="none" stroke="#00a8dd" stroke-width="2.4" />
  <circle cx="12" cy="12" r="3.4" fill="#ffffff" stroke="#006c9c" stroke-width="1.4" />
</svg>
